<svg width="458" height="125" viewBox="0 0 458 125" fill="none" xmlns="http://www.w3.org/2000/svg">
<path d="M6.37186 99V87.1308L53.7235 27.4103H7.24643V13.1673H74.9631V25.0365L27.7363 84.757H75.5877V99H6.37186ZM120.106 87.0059C126.103 87.0059 133.224 84.2573 136.848 80.5091L146.468 90.5042C140.846 96.5012 129.601 100.499 120.231 100.499C101.74 100.499 86.4974 86.3812 86.4974 66.516C86.4974 47.1506 100.99 32.9076 119.356 32.9076C139.346 32.9076 150.966 48.0251 150.966 71.8884H102.24C104.114 80.759 110.86 87.0059 120.106 87.0059ZM119.981 46.4009C111.485 46.4009 104.613 51.7733 102.365 60.2691H136.348C134.599 52.1481 129.101 46.4009 119.981 46.4009ZM264.654 27.4103H215.678V49.1496H260.031V63.3925H215.678V99H200.061V13.1673H264.654V27.4103ZM285.515 24.6616C280.643 24.6616 276.77 20.5387 276.77 15.916C276.77 11.2932 280.643 7.2952 285.515 7.2952C290.263 7.2952 294.136 11.2932 294.136 15.916C294.136 20.5387 290.263 24.6616 285.515 24.6616ZM277.769 99V34.4068H293.012V99H277.769ZM309.858 99V11.668H325.1V99H309.858ZM372.057 87.0059C378.054 87.0059 385.175 84.2573 388.799 80.5091L398.419 90.5042C392.797 96.5012 381.552 100.499 372.182 100.499C353.691 100.499 338.448 86.3812 338.448 66.516C338.448 47.1506 352.941 32.9076 371.307 32.9076C391.297 32.9076 402.917 48.0251 402.917 71.8884H354.191C356.065 80.759 362.811 87.0059 372.057 87.0059ZM371.932 46.4009C363.436 46.4009 356.564 51.7733 354.316 60.2691H388.299C386.55 52.1481 381.052 46.4009 371.932 46.4009Z" fill="black"/>
<rect x="164.242" y="6.88725" width="20.6617" height="20.6617" fill="#87E64B"/>
<rect x="172.851" y="26.6879" width="12.0526" height="12.0526" fill="#87E64B"/>
<rect x="275.175" y="4.13315" width="20.6617" height="20.6617" fill="#87E64B"/>
</svg>
